<svg width="37" height="37" viewBox="0 0 37 37" fill="none" xmlns="http://www.w3.org/2000/svg">
<path d="M3.04062 10.8032V7.80322C3.04062 6.97822 3.33462 6.27222 3.92262 5.68522C4.51062 5.09822 5.21662 4.80422 6.04062 4.80322H30.0406C30.8656 4.80322 31.5721 5.09722 32.1601 5.68522C32.7481 6.27322 33.0416 6.97922 33.0406 7.80322V10.8032H30.0406V7.80322H6.04062V10.8032H3.04062ZM12.0406 31.8032V28.8032H6.04062C5.21562 28.8032 4.50962 28.5097 3.92262 27.9227C3.33562 27.3357 3.04162 26.6292 3.04062 25.8032V22.8032H6.04062V25.8032H30.0406V22.8032H33.0406V25.8032C33.0406 26.6282 32.7471 27.3347 32.1601 27.9227C31.5731 28.5107 30.8666 28.8042 30.0406 28.8032H24.0406V31.8032H12.0406ZM7.24062 16.8032L11.1406 12.9032L9.04062 10.8032L3.04062 16.8032L9.04062 22.8032L11.1406 20.7032L7.24062 16.8032ZM28.8406 16.8032L24.9406 20.7032L27.0406 22.8032L33.0406 16.8032L27.0406 10.8032L24.9406 12.9032L28.8406 16.8032Z" fill="white"/>
</svg>
