<svg width="85" height="85" viewBox="0 0 85 85" fill="none" xmlns="http://www.w3.org/2000/svg">
<rect width="84.0927" height="84.0927" rx="18.819" fill="#26C3F4"/>
<path d="M33.9139 22.0613C34.9954 22.0613 39.3211 31.7942 39.3211 32.8757C39.3211 35.0386 36.0768 37.2014 34.9954 39.3643C33.9139 41.5272 36.0768 43.6901 38.2397 45.8529C39.0832 46.6965 42.5655 50.1787 44.7283 49.0973C46.8912 48.0158 49.0541 44.7715 51.217 44.7715C52.2984 44.7715 62.0314 49.0973 62.0314 50.1787C62.0314 54.5045 58.787 57.7488 55.5427 58.8302C52.2984 59.9117 50.1355 59.9117 45.8098 58.8302C41.484 57.7488 38.2397 56.6673 32.8325 51.2601C27.4253 45.8529 26.3439 42.6086 25.2624 38.2829C24.181 33.9571 24.181 31.7942 25.2624 28.5499C26.3439 25.3056 29.5882 22.0613 33.9139 22.0613Z" stroke="white" stroke-width="4.32576" stroke-linecap="round" stroke-linejoin="round"/>
</svg>
