<svg width="85" height="85" viewBox="0 0 85 85" fill="none" xmlns="http://www.w3.org/2000/svg">
<rect x="0.898193" width="84.0927" height="84.0927" rx="18.819" fill="#26C3F4"/>
<path d="M43.4636 43.6904C47.0472 43.6904 49.9522 40.7853 49.9522 37.2018C49.9522 33.6182 47.0472 30.7131 43.4636 30.7131C39.88 30.7131 36.975 33.6182 36.975 37.2018C36.975 40.7853 39.88 43.6904 43.4636 43.6904Z" stroke="white" stroke-width="4.15273" stroke-linecap="round" stroke-linejoin="round"/>
<path d="M43.4636 19.8987C38.8746 19.8987 34.4735 21.7217 31.2285 24.9666C27.9836 28.2116 26.1606 32.6127 26.1606 37.2017C26.1606 41.2939 27.0301 43.9715 29.4049 46.9347L43.4636 63.1563L57.5223 46.9347C59.8972 43.9715 60.7666 41.2939 60.7666 37.2017C60.7666 32.6127 58.9437 28.2116 55.6987 24.9666C52.4538 21.7217 48.0527 19.8987 43.4636 19.8987Z" stroke="white" stroke-width="4.15273" stroke-linecap="round" stroke-linejoin="round"/>
</svg>
